<?xml version="1.0" encoding="UTF-8"?>
<svg version="1.1" xmlns="http://www.w3.org/2000/svg" width="1026" height="251">
<path d="M0 0 C338.58 0 677.16 0 1026 0 C1026 82.83 1026 165.66 1026 251 C687.42 251 348.84 251 0 251 C0 168.17 0 85.34 0 0 Z " fill="#FEFEFE" transform="translate(0,0)"/>
<path d="M0 0 C14.36701697 12.4397342 24.74466153 28.97739323 26.66064453 48.20849609 C27.96289399 67.7259088 23.45204768 87.84092277 10.45800781 102.94335938 C-3.25601085 117.93377026 -20.56383864 127.93060155 -41.015625 129.34765625 C-61.43715697 130.17674494 -80.57814733 123.24166947 -95.87890625 109.6640625 C-110.55809198 94.92077552 -117.89227135 76.91542915 -118 56.28125 C-117.91164279 48.16416786 -117.4038699 40.6450316 -114.5625 32.96875 C-114.2221875 31.98132813 -113.881875 30.99390625 -113.53125 29.9765625 C-107.24745341 13.29053506 -93.80034345 -1.52542763 -77.5625 -9.03125 C-51.19418286 -19.75479071 -22.92956107 -18.17587158 0 0 Z " fill="#0E4F9C" transform="translate(797.5625,66.03125)"/>
<path d="M0 0 C12.4575 -0.0825 24.915 -0.165 37.75 -0.25 C43.61604004 -0.30462402 43.61604004 -0.30462402 49.60058594 -0.36035156 C54.43408203 -0.37841797 54.43408203 -0.37841797 56.70806885 -0.3817749 C58.27175471 -0.38785439 59.83542368 -0.40178989 61.39898682 -0.42230225 C76.80470674 -0.61402987 89.085335 1.76083965 100.77734375 12.65625 C108.51955205 21.00916684 112.50847771 31.8739302 112.24609375 43.171875 C111.30987248 53.9309893 106.07813098 63.87223737 98 71 C98.59683594 71.25394531 99.19367188 71.50789063 99.80859375 71.76953125 C105.59459201 75.0183538 108.87096869 81.9490689 111 88 C113.88355664 100.05850958 111.3737699 111.53484465 105 122 C98.44766828 131.19940838 89.32420655 137.29289325 78.23458862 139.56712341 C74.59744791 140.0538725 71.10413678 140.11970393 67.43408203 140.11352539 C66.6899449 140.11364593 65.94580776 140.11376646 65.17912102 140.11389065 C62.78865362 140.11314882 60.39826581 140.10555412 58.0078125 140.09765625 C56.52465858 140.09618457 55.04150415 140.09516525 53.55834961 140.09460449 C48.08055845 140.08937786 42.60277843 140.07541659 37.125 140.0625 C24.87375 140.041875 12.6225 140.02125 0 140 C0 93.8 0 47.6 0 0 Z " fill="#0D4F9C" transform="translate(564,52)"/>
<path d="M0 0 C66.94339623 0 66.94339623 0 86 15 C86.76054687 15.58394531 87.52109375 16.16789062 88.3046875 16.76953125 C98.2655009 24.95532081 104.89160836 35.86816116 109 48 C109.31839844 48.91910156 109.63679688 49.83820313 109.96484375 50.78515625 C115.17497252 68.24028813 112.23009622 87.98467762 104 104 C96.48662696 116.36650873 87.54443012 125.04663818 75 132.125 C73.865625 132.76695312 72.73125 133.40890625 71.5625 134.0703125 C47.60428747 144.20332362 27.57774834 140 0 140 C0 93.8 0 47.6 0 0 Z " fill="#0D4E9C" transform="translate(399,52)"/>
<path d="M0 0 C8.91 0 17.82 0 27 0 C27 48.18 27 96.36 27 146 C24.69 146 22.38 146 20 146 C17.93353981 143.78441382 16.58095959 142.04044892 15.0625 139.5 C14.66482422 138.87996094 14.26714844 138.25992188 13.85742188 137.62109375 C12.88283117 136.09462638 11.93834415 134.54901257 11 133 C7.86538592 134.44291759 5.3044082 136.22717015 2.5625 138.3125 C-9.03764926 146.56877265 -22.08850541 149.62365241 -36.09765625 147.5390625 C-51.01302621 144.19833405 -62.9422733 136.53992198 -71.4296875 123.7890625 C-79.41047746 109.6142266 -81.23777144 93.19905119 -78.31640625 77.2734375 C-77.39647378 74.38003993 -76.31902981 71.73286488 -75 69 C-74.5875 68.07316406 -74.175 67.14632812 -73.75 66.19140625 C-67.34560747 53.07331815 -56.02205679 44.20469061 -42.5 39.0625 C-31.25092545 36.14539801 -16.21499145 36.10043275 -6 42 C-4.35 43.32 -2.7 44.64 -1 46 C-0.67 30.82 -0.34 15.64 0 0 Z " fill="#02B7DF" transform="translate(225,37)"/>
<path d="M0 0 C9.9 0 19.8 0 30 0 C34.95600255 5.20488478 35.93711252 6.71400069 38 13 C39.28355111 15.28671485 40.62097652 17.54394049 42.0078125 19.76953125 C42.6879815 20.92179913 43.36396903 22.07654486 44.03588867 23.23364258 C44.37639252 23.81691315 44.71689636 24.40018372 45.06771851 25.00112915 C45.4166214 25.59888153 45.76552429 26.19663391 46.125 26.8125 C46.86878252 28.08429517 47.61268119 29.35602242 48.35668945 30.62768555 C50.57317118 34.4172642 52.78679553 38.20850674 55 42 C55.63309082 43.08410156 56.26618164 44.16820312 56.91845703 45.28515625 C60.9491523 52.1880628 64.97458192 59.09400751 69 66 C73.62 73.92 78.24 81.84 83 90 C83.33 60.3 83.66 30.6 84 0 C93.24 0 102.48 0 112 0 C112 46.2 112 92.4 112 140 C102.1 140 92.2 140 82 140 C77.04399745 134.79511522 76.06288748 133.28599931 74 127 C72.71644889 124.71328515 71.37902348 122.45605951 69.9921875 120.23046875 C69.3120185 119.07820087 68.63603097 117.92345514 67.96411133 116.76635742 C67.45335556 115.89145157 67.45335556 115.89145157 66.93228149 114.99887085 C66.5833786 114.40111847 66.23447571 113.80336609 65.875 113.1875 C65.13121748 111.91570483 64.38731881 110.64397758 63.64331055 109.37231445 C61.42682882 105.5827358 59.21320447 101.79149326 57 98 C56.36690918 96.91589844 55.73381836 95.83179688 55.08154297 94.71484375 C51.0508477 87.8119372 47.02541808 80.90599249 43 74 C36.07 62.12 36.07 62.12 29 50 C28.67 79.7 28.34 109.4 28 140 C18.76 140 9.52 140 0 140 C0 93.8 0 47.6 0 0 Z " fill="#0D4F9C" transform="translate(833,52)"/>
<path d="M0 0 C8.87312094 8.32539743 13.62382137 18.93883805 14.8125 30.9375 C15.03481583 43.9686278 10.51407572 55.62669012 1.70703125 65.234375 C-8.55326905 74.89540113 -20.13980925 78.6067305 -34.11328125 78.24609375 C-46.36520503 77.55701239 -56.23041644 71.37375569 -64.5 62.625 C-72.82264238 52.72189624 -75.74909826 42.04272393 -75.49609375 29.2734375 C-74.28871164 16.22148402 -67.36322408 5.97068492 -57.51171875 -2.30859375 C-39.60352707 -15.82250646 -17.18504892 -13.54586209 0 0 Z " fill="#FDFEFE" transform="translate(782.1875,89.0625)"/>
<path d="M0 0 C8.58 0 17.16 0 26 0 C26.04898437 4.08246094 26.09796875 8.16492188 26.1484375 12.37109375 C26.19304456 15.64750153 26.23953616 18.92387065 26.28729248 22.20023346 C26.33702053 25.64704029 26.38350808 29.09381788 26.421875 32.54077148 C26.46615636 36.50521417 26.52570702 40.4693601 26.5859375 44.43359375 C26.59748871 45.65582138 26.60903992 46.87804901 26.62094116 48.13731384 C26.77829154 57.32763686 26.99277693 65.61969737 33 73 C38.61517504 77.94670182 42.24441475 78.48461527 49.6640625 78.39453125 C54.9094121 77.7741796 57.54327557 75.85455822 61 72 C66.41702252 64.20343911 66.73494244 56.71980575 66.70703125 47.4609375 C66.72017489 46.08515256 66.73548721 44.7093868 66.75285339 43.33364868 C66.79240632 39.74649708 66.80287432 36.15985362 66.80688477 32.57250977 C66.816273 28.89844638 66.85372136 25.22467465 66.88867188 21.55078125 C66.95294457 14.36713259 66.98383279 7.18394751 67 0 C75.58 0 84.16 0 93 0 C93 34.32 93 68.64 93 104 C91.02 104 89.04 104 87 104 C84.6640625 101.59375 84.6640625 101.59375 82.625 98.5 C81.93664062 97.4790625 81.24828125 96.458125 80.5390625 95.40625 C80.03117187 94.6121875 79.52328125 93.818125 79 93 C76.52136767 94.47925482 74.0516947 95.96761702 71.60546875 97.5 C60.46019875 104.41402856 49.6340149 107.87536441 36.48828125 105.31640625 C29.03478194 103.37446751 22.93596684 100.93707107 17 96 C16.30261719 95.42507812 15.60523438 94.85015625 14.88671875 94.2578125 C5.38058049 85.6288885 0.67588607 73.10640302 -0.26298523 60.45672607 C-0.34444968 56.57828151 -0.33878095 52.70656643 -0.29296875 48.828125 C-0.28735714 47.41038467 -0.28309447 45.99263842 -0.28010559 44.57489014 C-0.26877963 40.88577543 -0.23942207 37.19702841 -0.20599365 33.50805664 C-0.17502468 29.72677582 -0.1615436 25.94543422 -0.14648438 22.1640625 C-0.11453712 14.7758565 -0.06187362 7.3880271 0 0 Z " fill="#01B7DF" transform="translate(261,79)"/>
<path d="M0 0 C13.53 0.66 27.06 1.32 41 2 C41.66 6.95 42.32 11.9 43 17 C44.21833941 20.3939455 45.24291095 22.96713673 47 26 C47.42152344 26.74636719 47.84304687 27.49273437 48.27734375 28.26171875 C57.82990546 43.84747733 72.02968163 48.15133761 89 53 C89 65.54 89 78.08 89 91 C67.01541111 87.85934444 47.71428757 81.52408073 30 68 C29.00613281 67.28263672 29.00613281 67.28263672 27.9921875 66.55078125 C12.76387981 54.75769646 3.58675407 34.26308174 1.01879883 15.68701172 C0.34947597 10.39686869 0 5.34401719 0 0 Z " fill="#02B7DF" transform="translate(55,113)"/>
<path d="M0 0 C25.84735202 0 25.84735202 0 33 4 C34.17175781 4.63615234 34.17175781 4.63615234 35.3671875 5.28515625 C46.20180098 11.83334857 52.06425988 21.19277963 56 33 C56.99028704 46.79328383 55.71866922 58.09924222 46.6484375 69.1953125 C39.68909852 76.81430446 32.07432578 81.48141856 22 84 C14.74 84 7.48 84 0 84 C0 56.28 0 28.56 0 0 Z " fill="#FDFEFE" transform="translate(427,80)"/>
<path d="M0 0 C9.24 0 18.48 0 28 0 C28 46.2 28 92.4 28 140 C18.76 140 9.52 140 0 140 C0 93.8 0 47.6 0 0 Z " fill="#0C4E9B" transform="translate(520,52)"/>
<path d="M0 0 C7.21462932 4.90074821 11.50470554 11.02810971 13.62890625 19.51171875 C14.98801356 28.62489091 12.05754906 36.5445923 6.81640625 43.953125 C2.48602906 48.8329479 -3.26665391 52.68846223 -9.85546875 53.23828125 C-18.37804825 53.42811596 -23.69789532 52.81881115 -30.12109375 47.1171875 C-36.32964332 40.76054408 -40.04192179 33.4092137 -40.4375 24.4375 C-39.87878497 15.2022692 -37.00055555 8.81317395 -30.52734375 2.140625 C-21.24804269 -5.71881392 -10.23192339 -6.12461489 0 0 Z " fill="#FCFEFE" transform="translate(212,105)"/>
<path d="M0 0 C4.93025674 3.75795125 7.821309 8.50586721 8.91796875 14.61328125 C9.28204719 21.57013136 7.67358798 27.36728775 3.4375 32.9375 C-2.75913665 38.27680864 -8.42456075 40.43699199 -16.57421875 40.33984375 C-22.55788775 39.53419943 -27.41342837 36.51638595 -31.26171875 31.8984375 C-35.20763005 25.86085403 -36.37853881 20.10444955 -35.5625 12.9375 C-33.6275595 6.2576417 -29.14744571 1.86000078 -23.5625 -2.0625 C-15.61714537 -5.86964909 -7.32714648 -4.57946655 0 0 Z " fill="#FEF8F8" transform="translate(989.5625,13.0625)"/>
<path d="M0 0 C6.44196127 -0.09195504 12.8816352 -0.17155776 19.32373047 -0.21972656 C21.51391324 -0.23981107 23.70404259 -0.26708417 25.89404297 -0.30175781 C29.04668376 -0.35041409 32.19861404 -0.37300078 35.3515625 -0.390625 C36.32678864 -0.41127014 37.30201477 -0.43191528 38.30679321 -0.45318604 C45.47978858 -0.45554033 49.05156882 1.2843397 54.375 6.1875 C56.67749257 10.17258329 56.77866959 13.50278584 56 18 C53.5998105 22.89269398 50.79086607 25.47121022 46 28 C42.4419926 28.53392178 38.94250053 28.4666437 35.3515625 28.390625 C34.33903412 28.38496521 33.32650574 28.37930542 32.28329468 28.37347412 C29.06337323 28.35116254 25.8445826 28.30097472 22.625 28.25 C20.43621404 28.22992831 18.24741056 28.21167871 16.05859375 28.1953125 C10.70494771 28.15472383 5.35373293 28.07642125 0 28 C0 18.76 0 9.52 0 0 Z " fill="#FEFEFE" transform="translate(592,80)"/>
<path d="M0 0 C6.2992413 -0.0689698 12.59716597 -0.12867498 18.89648438 -0.16479492 C21.03813117 -0.17985641 23.17974724 -0.20030972 25.32128906 -0.22631836 C28.40437411 -0.26281728 31.48705038 -0.27975302 34.5703125 -0.29296875 C35.52366486 -0.30845261 36.47701721 -0.32393646 37.45925903 -0.33988953 C43.98429179 -0.34153146 48.35267211 0.56732031 53.3125 5.125 C55.60935017 9.03815214 56.19954025 12.48240876 56 17 C54.38944896 21.74217807 52.12544386 24.2153254 48 27 C45.16987873 27.94337376 43.45700082 28.12172829 40.52856445 28.11352539 C39.17750359 28.11341209 39.17750359 28.11341209 37.79914856 28.11329651 C36.83031235 28.10813522 35.86147614 28.10297394 34.86328125 28.09765625 C33.37141548 28.09553383 33.37141548 28.09553383 31.84941101 28.09336853 C28.67041018 28.08776761 25.49147957 28.07521496 22.3125 28.0625 C20.15820414 28.05748512 18.00390718 28.05292219 15.84960938 28.04882812 C10.56635737 28.03864845 5.28325738 28.01907313 0 28 C0 18.76 0 9.52 0 0 Z " fill="#FDFDFE" transform="translate(592,136)"/>
<path d="M0 0 C-1.68340391 4.05997414 -4.51147289 7.11270224 -7.375 10.375 C-8.45581812 11.6210166 -9.53654453 12.86711275 -10.6171875 14.11328125 C-11.17374023 14.75217285 -11.73029297 15.39106445 -12.30371094 16.04931641 C-15.05036686 19.20789166 -17.77517418 22.38509618 -20.5 25.5625 C-20.99161621 26.13339355 -21.48323242 26.70428711 -21.98974609 27.29248047 C-22.45719238 27.83662598 -22.92463867 28.38077148 -23.40625 28.94140625 C-23.85516602 29.45501709 -24.30408203 29.96862793 -24.76660156 30.49780273 C-26.19516278 32.17821195 -26.19516278 32.17821195 -27.890625 34.9453125 C-30 37 -30 37 -33.453125 37.05078125 C-34.70609375 36.80714844 -35.9590625 36.56351563 -37.25 36.3125 C-39.14492187 35.96638672 -39.14492187 35.96638672 -41.078125 35.61328125 C-42.04234375 35.41089844 -43.0065625 35.20851562 -44 35 C-40.64806184 29.81398246 -36.9249766 25.02626508 -33.06640625 20.2109375 C-30.17981949 16.58071481 -27.51803722 12.89583117 -25 9 C-34.53464471 8.19493928 -34.53464471 8.19493928 -43.3125 11.1875 C-45.55436117 12.53452062 -46.50524642 13.06082292 -49.12890625 12.73828125 C-51.49933665 11.95913108 -53.72475557 11.02404618 -56 10 C-57.8525559 9.2667506 -59.70671524 8.53753861 -61.5625 7.8125 C-63.04273073 7.21094504 -64.5222978 6.60773974 -66 6 C-60.38320341 -1.64508425 -51.84009349 -8.02446925 -42.3046875 -9.78515625 C-26.15913327 -11.29025029 -14.11093558 -7.62753275 0 0 Z " fill="#06B9DF" transform="translate(152,83)"/>
<path d="M0 0 C11 0 11 0 16 2 C18 5 18 5 17.75 8 C17 11 17 11 15 14 C15.48082031 14.39832031 15.96164062 14.79664063 16.45703125 15.20703125 C18.37391825 17.43450247 18.47741643 18.78834669 18.6875 21.6875 C18.78611328 22.89986328 18.78611328 22.89986328 18.88671875 24.13671875 C18.92410156 24.75160156 18.96148438 25.36648437 19 26 C18.01 26 17.02 26 16 26 C15.86722656 25.36191406 15.73445312 24.72382812 15.59765625 24.06640625 C15.42105469 23.24011719 15.24445312 22.41382812 15.0625 21.5625 C14.88847656 20.73878906 14.71445312 19.91507813 14.53515625 19.06640625 C14.19247006 17.02338796 14.19247006 17.02338796 13 16 C11.31816052 15.76712992 9.6287584 15.58735834 7.9375 15.4375 C6.308125 15.293125 4.67875 15.14875 3 15 C3 18.63 3 22.26 3 26 C2.01 26 1.02 26 0 26 C0 17.42 0 8.84 0 0 Z " fill="#FE6364" transform="translate(967,18)"/>
<path d="M0 0 C4.93025674 3.75795125 7.821309 8.50586721 8.91796875 14.61328125 C9.28204719 21.57013136 7.67358798 27.36728775 3.4375 32.9375 C-2.75913665 38.27680864 -8.42456075 40.43699199 -16.57421875 40.33984375 C-22.55788775 39.53419943 -27.41342837 36.51638595 -31.26171875 31.8984375 C-35.20763005 25.86085403 -36.37853881 20.10444955 -35.5625 12.9375 C-33.6275595 6.2576417 -29.14744571 1.86000078 -23.5625 -2.0625 C-15.61714537 -5.86964909 -7.32714648 -4.57946655 0 0 Z M-29.19921875 4.98046875 C-30.43722163 6.92792887 -31.54018857 8.87005768 -32.5625 10.9375 C-32.8925 11.5975 -33.2225 12.2575 -33.5625 12.9375 C-34.41758952 19.56794822 -33.33256331 25.37117385 -29.5625 30.9375 C-23.91965735 36.35326649 -18.97207449 38.33161255 -11.19140625 38.20703125 C-6.02091313 37.67692126 -2.29591512 35.81442225 1.23046875 31.99609375 C6.03063746 25.80490227 7.25879286 20.73399846 6.4375 12.9375 C4.36278836 6.08502385 0.28735874 2.18325093 -5.8125 -1.375 C-14.61451444 -3.57550361 -23.25696539 -2.43671146 -29.19921875 4.98046875 Z " fill="#FD1D1D" transform="translate(989.5625,13.0625)"/>
<path d="M0 0 C1.81242052 -0.02687279 3.62495233 -0.04633715 5.4375 -0.0625 C6.44683594 -0.07410156 7.45617187 -0.08570312 8.49609375 -0.09765625 C11 0 11 0 12 1 C12.1875 3.9375 12.1875 3.9375 12 7 C10 9 10 9 7.6171875 9.1953125 C6.71226562 9.17210937 5.80734375 9.14890625 4.875 9.125 C3.50988281 9.09792969 3.50988281 9.09792969 2.1171875 9.0703125 C1.41851563 9.04710937 0.71984375 9.02390625 0 9 C0 6.03 0 3.06 0 0 Z " fill="#FEFCFB" transform="translate(970,21)"/>
<path d="M0 0 C3.63 0 7.26 0 11 0 C11.66 0.66 12.32 1.32 13 2 C9.37 2 5.74 2 2 2 C2 5.63 2 9.26 2 13 C4.97 13 7.94 13 11 13 C11 13.33 11 13.66 11 14 C8.03 14 5.06 14 2 14 C2 17.96 2 21.92 2 26 C1.34 26 0.68 26 0 26 C0 17.42 0 8.84 0 0 Z " fill="#FE2B2B" transform="translate(967,18)"/>
<path d="M0 0 C2.56377118 3.84565677 2.5099662 5.41030416 2 10 C-0.30032082 17.05729496 -3.58280655 21.12752681 -9.9140625 24.94140625 C-14.05520196 27.04299575 -17.39810367 27.24653016 -22 27 C-22.99 26.34 -23.98 25.68 -25 25 C-24.3709375 24.97421875 -23.741875 24.9484375 -23.09375 24.921875 C-16.21828484 24.46627189 -10.71641747 23.30033001 -5.46484375 18.63671875 C-0.96141329 13.34551619 -0.6734762 6.68450259 0 0 Z " fill="#FE1515" transform="translate(996,26)"/>
<path d="M0 0 C5.36903095 1.12784895 9.38397925 3.7834043 12.59765625 8.19140625 C16.1360023 14.17406935 16.1360023 14.17406935 15.625 17.27734375 C15.41875 17.84582031 15.2125 18.41429688 15 19 C15 18.01 15 17.02 15 16 C14.34 16 13.68 16 13 16 C12.76925781 15.46890625 12.53851562 14.9378125 12.30078125 14.390625 C9.65869184 8.66783845 7.10258691 5.37892752 1.1875 2.75 C0.465625 2.5025 -0.25625 2.255 -1 2 C-0.67 1.34 -0.34 0.68 0 0 Z " fill="#FE2424" transform="translate(982,10)"/>
<path d="M0 0 C0.66 0.66 1.32 1.32 2 2 C1.31035156 2.01417969 0.62070312 2.02835938 -0.08984375 2.04296875 C-7.32201196 2.41003353 -11.94983494 4.15425152 -18 8 C-19.32543166 8.68224125 -20.65660508 9.35384808 -22 10 C-16.11852832 1.86841984 -10.00740434 -0.86270727 0 0 Z " fill="#FD1616" transform="translate(980,9)"/>
<path d="M0 0 C0.99 0.33 1.98 0.66 3 1 C1.35 4.3 -0.3 7.6 -2 11 C-3.28485596 5.86057616 -2.22194431 4.62164416 0 0 Z " fill="#FD2928" transform="translate(957,19)"/>
<path d="M0 0 C3 1 3 1 5 4 C4.625 6.6875 4.625 6.6875 4 9 C3.731875 8.4225 3.46375 7.845 3.1875 7.25 C1.98280141 4.9674132 0.59201885 3.0262058 -1 1 C-0.67 0.67 -0.34 0.34 0 0 Z " fill="#FD2727" transform="translate(980,19)"/>
</svg>
